<?xml version="1.0" encoding="UTF-8"?>
<svg id="uuid-10c5364d-de29-4750-9e5f-d3b09e252137" data-name="레이어 1" xmlns="http://www.w3.org/2000/svg" viewBox="0 0 317.0853019951 573.0536291396">
  <path d="M24.2259876981,478.9941256632l.0068635216-320.7610288338L.0179326394,148.0119104944l71.4687898393-74.8462400757,182.5379506172,52.3761898232c20.2166977636,5.8008408448,35.6593986734-2.5137940959,44.1869976933-20.9394117184,5.0027592022-10.809482001,9.8916986916-27.3945551415,5.776131475-38.966269434-2.4861926716-6.9904121979-8.6504340065-11.2059482469-16.1448518698-11.1354999837-9.4591325926.0889167744-17.6368701991,5.6194581458-28.6441551191,1.2104077967-9.4828506365-3.7984267885-15.9172553084-12.5796345165-17.5452277325-21.8182216458-1.9125186951-10.853359884,2.1067011136-21.2129168996,10.248970743-27.9365956086,5.6574711307-4.6717954477,12.4876446728-6.5855887851,19.7561483455-5.7758077733,20.9953517459,2.3390835234,36.4898443763,18.2920976176,42.3883677639,38.1059934784,9.5122221491,31.9527730385-4.8757843923,69.1453923193-21.5242698612,96.5405420558-13.442810209,22.1201982151-27.4841965416,43.4294135262-42.1314414089,64.7538796334-7.1198201649,10.3655236989-14.5419416149,20.1850864182-22.2636460535,30.1675796796l-109.3699275553,139.2941592844.030425194,72.0226478508,189.1365057604,54.2831471084-70.9875527262,77.3635428806c-.2522597906.2749173675-.9028562777.3636896403-1.4692080745.3372165246L0,505.473153017l24.2259876981-26.4790273539ZM225.0622482701,215.7428367211l-106.2827047233-30.5126669151.00698595,161.7904729981,106.2757187733-131.277806083Z"/>
</svg>