<?xml version="1.0" encoding="UTF-8"?>
<svg id="uuid-79ded3a0-2ce4-4bd0-90ed-05aa664516e9" data-name="레이어 1" xmlns="http://www.w3.org/2000/svg" viewBox="0 0 378.72 635.5948162888">
  <path d="M142.0522521564,635.5948162888h-.2793005898l-94.2442318744-30.1918159187.0111951709-165.3962753216-23.5391382711-7.4911918724-.0285047151-.9680150518,23.5715313904-25.7265011087-.0036823161-298.1075240303L.2866016552,74.9492167533,94.8608190369.0013143906l94.7016233062,65.7411471506L272.1139794825,0l106.3194188623,74.9189914939-47.1974244183,42.1461340151.0137641377,288.6234788901,24.3773031655,26.6097305878-118.2997156237,67.9244974967-95.1793494136-30.1777604078-.0957240362,165.549744213ZM236.6121651266,399.257343967l.0127299567-251.9321058862c-.7069266147-9.9018328102-4.2301934268-18.8576368603-10.0678135799-26.6025810197-11.6341033622-15.3487897312-31.7053038589-19.9257117399-49.8356308795-15.610333776-10.2442478558,2.438334477-18.8500960685,8.2926791377-25.0983297128,16.6971854663-5.4526239108,7.5470324352-8.7491438473,16.0183032422-9.5150069305,25.4969968675l.0044503375,222.0309437554,94.4996008086,29.9198945927Z"/>
</svg>