<?xml version="1.0" encoding="UTF-8"?>
<svg id="uuid-d32c227c-216b-4518-bb0f-482752e0bdb3" data-name="레이어 1" xmlns="http://www.w3.org/2000/svg" viewBox="0 0 473.52 721.1025996904">
  <path d="M472.7001834846,32.0999855856v1.6318247822l-.6404111187,2.9045235384c-6.6678340149,30.2413251131-30.1473453181,54.5994177671-57.9106007877,67.2563218613-11.9583410851,5.5507568747-24.0784967083,9.2385986463-37.0772660463,11.8210639901-15.143508308,3.0155729948-30.3371130937,4.1583185048-46.0770907581,4.3900594505l-.0130907337,415.0080315223-94.6926636366,47.35902396.0074654877-473.2965619351-37.5494776178-8.6314099596c-13.7167067219-3.1928143773-26.8396484557-5.9725631118-40.6899193867-8.3629483601-36.3307788558-5.7534916114-75.6083432249-7.2274512219-105.4949926693,17.5321390193-29.5989748717,24.5212662847-24.3996442293,65.17483216-9.9869045102,96.545878399l-8.7875486932,4.2830711662C1.2555750787,159.7495047953-17.9543590307,89.2673194912,28.4234258859,40.4799043143,54.0487210983,13.5232068607,88.566013775,2.328618103,125.0769943386.4563084474c8.8019291981-.4513693352,17.334386655-.702397567,26.1532607671-.1027402519l4.8673628641.330966256c30.1778139261,2.0520019499,55.1190654135,7.4323855829,84.2791512319,15.1051334513,61.0499469371,16.0637678897,143.5933200475,31.9502200205,205.957392574,22.9176842625,9.2679879768-1.3423342866,17.9571310569-3.3276622959,26.3660217089-6.6073665797Z"/>
  <polygon points="425.4883623832 595.9218955104 310.504039059 721.1025996904 21.7895950729 638.350195723 94.3513426778 559.3725562317 94.3594036601 180.244542617 189.043595846 132.8690130495 189.1016030126 587.8149661022 367.8161020206 639.0745516397 414.6922339673 592.189695652 425.4883623832 595.9218955104"/>
</svg>