<?xml version="1.0" encoding="UTF-8"?>
<svg id="uuid-9d14f290-8084-47ed-a0c1-b08cc94e5b6d" data-name="레이어 1" xmlns="http://www.w3.org/2000/svg" viewBox="0 0 443.04 635.5962509377">
  <path d="M442.4501777899,74.8488574414v.2984236111l-34.3353239784,52.0470065022c-6.0885388206,9.2292771079-12.5243098386,17.5758703545-19.3678057486,26.3241401616l-56.0276080076,71.6219660154L9.4943704405,635.5962509377h-.879677125c-2.4259860801-1.2517550566-4.8372840984-1.9537777875-8.0248711054-2.9806576836l.088017346-1.2080304353c22.0269454287-30.9529823986,42.9644706884-62.4209309405,62.4768564162-95.1048403062,10.032049508-16.8040239388,19.4294227735-33.6694904038,28.0104162093-51.1763063341,5.457527908-11.1343677436,10.1560044223-22.0224814528,14.3064381547-33.6541125766,2.9662426166-8.8732913204,5.346064886-17.5422915924,6.1022877867-27.0455833375l.0109252803-316.6676815086-47.2986715265-32.8124934797L158.8536390185,0l94.7517266793,65.7443949197L336.1779429783.0028035331l106.2722348116,74.8460539083ZM323.1056367992,209.5174875943c6.368295126-9.4560989503,23.6632728272-35.4590964849,24.5113983582-45.3021636551,1.3874135197-16.1018669614-5.6171417612-31.5591386367-17.4351996839-42.2898050055-6.7798500652-6.156029151-14.3822116303-10.4464831153-23.023302607-13.4234127815-29.1209657607-10.032421498-61.2486558367-4.3943102893-85.414545529,14.5883110243-4.7604592855,3.7394028131-8.4594757108,8.0839940695-11.8273500254,13.0500507454-1.6285033555,3.589842544-3.7230579208,6.9782872081-3.7231131212,11.2532532861l-.0027416532,212.3257941173c26.8020084917-31.980690225,52.1561077806-63.4259516626,77.1436320535-95.809224356,13.678525141-17.8959615734,26.9339385644-35.7095710406,39.7712222081-54.392803375Z"/>
</svg>